<svg xmlns="http://www.w3.org/2000/svg" width="1032" height="212" fill="none" viewBox="0 0 1032 212"><g filter="url(#a)"><g filter="url(#b)"><path fill="#8281fb" d="M0 92.5C0 41.414 41.414 0 92.5 0h821c51.086 0 92.5 41.414 92.5 92.5S964.586 185 913.5 185h-821C41.414 185 0 143.586 0 92.5"/><path stroke="#fff" stroke-width="13" d="M92.5 6.5h821c47.496 0 86 38.504 86 86s-38.503 86-86 86h-821c-47.496 0-86-38.504-86-86s38.504-86 86-86Z"/></g><path fill="#fff" d="M97.321 106.25q1.204.343 3.096.516 1.893.086 3.612.086 3.441 0 5.676-1.376 2.322-1.462 2.322-4.472 0-2.838-1.892-4.042t-5.762-1.204h-7.052zm0-20.984h6.278q3.699 0 5.332-1.376 1.72-1.376 1.72-4.042 0-2.322-1.978-3.698-1.892-1.376-5.762-1.376-1.29 0-3.01.086-1.633.086-2.58.258zm5.59 33.11q-1.461 0-3.44-.086a54 54 0 0 1-4.128-.344 52 52 0 0 1-4.128-.688q-2.064-.343-3.784-1.032-4.73-1.806-4.73-6.278V69.786q0-1.806.946-2.752Q84.68 66.002 86.4 65.4q2.925-1.032 7.31-1.462a77 77 0 0 1 9.03-.516q11.008 0 16.942 3.698t5.934 11.438q0 3.87-2.236 6.708-2.235 2.752-6.02 4.042 4.3 1.205 7.138 4.386 2.925 3.182 2.924 7.998 0 8.514-6.364 12.642-6.278 4.042-18.146 4.042m33.036-45.494q0-3.698 2.15-5.848t5.848-2.15h28.38q.603.945 1.032 2.494.516 1.548.516 3.268 0 3.269-1.462 4.644-1.376 1.376-3.698 1.376h-18.146v7.998h19.35q.603.946 1.032 2.494.516 1.462.516 3.182 0 3.269-1.376 4.644t-3.698 1.376h-15.824v9.03h22.102q.603.946 1.032 2.494.516 1.548.516 3.268 0 3.268-1.462 4.73-1.376 1.376-3.698 1.376h-25.112q-3.697 0-5.848-2.15t-2.15-5.848zm55.114 44.376q-3.699 0-5.848-2.15t-2.15-5.848V64.798q.945-.172 3.01-.43a24 24 0 0 1 3.956-.344q1.977 0 3.44.344 1.548.258 2.58 1.032t1.548 2.15.516 3.612v33.97h19.694q.602.947 1.118 2.58.516 1.548.516 3.268 0 3.44-1.462 4.902-1.463 1.376-3.87 1.376zm51.143-.602q-.946.258-3.01.516a31 31 0 0 1-3.956.258q-1.978 0-3.526-.344-1.462-.258-2.494-1.032t-1.548-2.15q-.516-1.375-.516-3.612V64.884q.946-.172 3.01-.43a24 24 0 0 1 3.956-.344q1.979 0 3.44.344 1.548.258 2.58 1.032t1.548 2.15.516 3.612zm25.962-39.732q-.602-.945-1.118-2.58a11.4 11.4 0 0 1-.516-3.44q0-3.354 1.462-4.816 1.548-1.462 3.956-1.462h37.496q.602.945 1.118 2.58t.516 3.44q0 3.354-1.548 4.816-1.461 1.462-3.87 1.462h-9.546v39.732q-.946.258-3.01.516a31 31 0 0 1-3.956.258q-1.978 0-3.526-.344-1.462-.258-2.494-1.032t-1.548-2.15q-.516-1.375-.516-3.612V76.924zm65.245 39.732q-.946.258-3.01.516a31 31 0 0 1-3.956.258q-1.978 0-3.526-.344-1.462-.258-2.494-1.032t-1.548-2.15q-.516-1.375-.516-3.612V64.884q.946-.172 3.01-.43a24 24 0 0 1 3.956-.344q1.979 0 3.44.344 1.548.258 2.58 1.032t1.548 2.15.516 3.612zm26.29-19.006v19.006q-.946.258-3.01.516a33 33 0 0 1-4.042.258q-1.978 0-3.526-.344-1.462-.258-2.494-1.032t-1.548-2.15q-.516-1.375-.516-3.612V64.884q.945-.172 3.01-.43a24 24 0 0 1 3.956-.344q1.977 0 3.44.344 1.548.258 2.58 1.032t1.548 2.15.516 3.612v13.674l17.888-20.554q5.847 0 8.342 2.236 2.58 2.15 2.58 5.16 0 2.235-1.118 4.214t-3.612 4.472l-10.75 10.75q2.15 2.408 4.472 4.988a408 408 0 0 0 4.644 5.074 291 291 0 0 1 4.386 4.644 134 134 0 0 0 3.698 3.87q0 1.892-.688 3.354a7.4 7.4 0 0 1-1.892 2.494 7.4 7.4 0 0 1-2.58 1.548 9.2 9.2 0 0 1-3.096.516q-3.527 0-5.762-1.72-2.236-1.806-4.3-4.214zm37.774-24.768q0-3.698 2.15-5.848t5.848-2.15h28.38q.602.945 1.032 2.494.516 1.548.516 3.268 0 3.269-1.462 4.644-1.376 1.376-3.698 1.376h-18.146v7.998h19.35q.602.946 1.032 2.494.516 1.462.516 3.182 0 3.269-1.376 4.644-1.377 1.376-3.698 1.376h-15.824v9.03h22.102q.601.946 1.032 2.494.516 1.548.516 3.268 0 3.268-1.462 4.73-1.376 1.376-3.698 1.376h-25.112q-3.699 0-5.848-2.15t-2.15-5.848zm44.707 4.042q-.602-.945-1.118-2.58a11.4 11.4 0 0 1-.516-3.44q0-3.354 1.462-4.816 1.548-1.462 3.956-1.462h37.496q.602.945 1.118 2.58t.516 3.44q0 3.354-1.548 4.816-1.462 1.462-3.87 1.462h-9.546v39.732q-.946.258-3.01.516a31 31 0 0 1-3.956.258q-1.978 0-3.526-.344-1.462-.258-2.494-1.032t-1.548-2.15q-.516-1.375-.516-3.612V76.924zm97.409 38.27q-1.204 1.204-3.526 1.806-2.236.688-5.418.688t-6.02-.946-4.644-4.558l-8.514-17.372q-1.29-2.666-2.322-4.988a177 177 0 0 1-2.236-5.504l-.516.086q.344 4.644.344 9.46.086 4.816.086 9.46v13.33q-.946.258-2.924.516a28 28 0 0 1-3.784.258q-1.892 0-3.354-.258t-2.408-1.032-1.462-2.064q-.516-1.376-.516-3.526v-43q1.204-1.72 3.698-2.58t5.332-.86q3.182 0 6.02 1.032 2.924.945 4.644 4.472l8.6 17.372q1.29 2.666 2.322 5.074a126 126 0 0 1 2.236 5.418l.43-.086a168 168 0 0 1-.43-9.288 505 505 0 0 1-.086-9.288V64.884q.947-.258 2.838-.516a30 30 0 0 1 3.87-.258q3.784 0 5.762 1.376 1.978 1.29 1.978 5.504zm38.503 1.462q-.945.258-2.924.516a30 30 0 0 1-3.87.258q-3.956 0-5.934-1.29-1.977-1.376-1.978-5.676v-11.61a394 394 0 0 1-4.644-7.052 267 267 0 0 1-4.902-7.912 193 193 0 0 1-4.472-7.912q-2.064-3.956-3.354-7.224 1.119-1.548 3.01-2.838 1.978-1.29 4.816-1.29 3.354 0 5.418 1.376 2.15 1.376 4.042 5.16l7.138 14.362h.516a120 120 0 0 0 2.064-4.816q.947-2.236 1.806-4.386.861-2.236 1.806-4.558.947-2.408 2.15-5.504a15.2 15.2 0 0 1 3.44-1.204 16.3 16.3 0 0 1 3.612-.43q3.01 0 5.074 1.634 2.15 1.548 2.15 4.73 0 1.032-.43 2.494t-1.978 4.472q-1.548 2.924-4.558 7.998-2.923 5.074-7.998 13.244zM608.2 66.432q1.461-.86 4.386-1.634a24 24 0 0 1 6.02-.774q4.3 0 7.568 1.29 3.354 1.204 4.3 3.87 1.548 4.472 3.354 10.406a678 678 0 0 1 3.612 12.298q1.806 6.278 3.526 12.47a1406 1406 0 0 1 3.01 10.836q-1.032 1.204-3.096 1.892-2.064.774-4.902.774-2.065 0-3.526-.344-1.377-.343-2.322-1.032-.86-.688-1.462-1.806a19 19 0 0 1-.946-2.58l-1.548-5.934h-15.566q-.689 2.58-1.376 5.332a364 364 0 0 1-1.376 5.332q-1.205.43-2.58.688-1.29.344-3.182.344-4.386 0-6.536-1.462-2.064-1.548-2.064-4.214 0-1.204.344-2.408t.774-2.838q.602-2.322 1.634-5.762 1.118-3.44 2.408-7.396 1.29-4.042 2.752-8.256t2.752-7.912q1.29-3.785 2.322-6.708 1.117-2.925 1.72-4.472m10.32 11.094a757 757 0 0 1-2.752 8.084 146 146 0 0 0-2.666 8.944h10.664a290 290 0 0 0-2.494-9.03 388 388 0 0 0-2.236-7.998zm64.684 28.294q.947.172 2.322.344a42 42 0 0 0 2.58.086q2.925 0 5.332-.86 2.495-.86 4.214-2.666 1.807-1.806 2.752-4.644 1.032-2.924 1.032-6.966 0-7.74-3.612-11.61-3.612-3.956-9.632-3.956-1.203 0-2.494.086-1.203.086-2.494.258zm4.816 12.556q-1.461 0-3.354-.086a50 50 0 0 1-3.956-.344 54 54 0 0 1-4.042-.688 18.4 18.4 0 0 1-3.698-1.032q-4.73-1.806-4.73-6.278V69.786q0-1.806.946-2.752 1.033-1.032 2.752-1.634 3.698-1.204 7.826-1.548 4.128-.43 7.396-.43 6.708 0 12.126 1.634 5.504 1.634 9.374 5.074 3.957 3.354 6.106 8.514t2.15 12.212q0 6.88-2.064 12.04-2.064 5.074-5.934 8.6-3.783 3.44-9.116 5.16-5.332 1.72-11.782 1.72m52.548-1.72q-.946.258-3.01.516a31 31 0 0 1-3.956.258q-1.978 0-3.526-.344-1.462-.258-2.494-1.032t-1.548-2.15q-.516-1.375-.516-3.612V64.884q.946-.172 3.01-.43a24 24 0 0 1 3.956-.344q1.977 0 3.44.344 1.548.258 2.58 1.032t1.548 2.15.516 3.612zm25.945-20.382q-3.784-1.29-6.88-2.58-3.096-1.376-5.332-3.268a14 14 0 0 1-3.526-4.472q-1.204-2.665-1.204-6.45 0-7.31 5.59-11.696 5.676-4.386 15.824-4.386 3.698 0 6.88.516t5.418 1.634q2.322 1.032 3.612 2.752 1.29 1.635 1.29 3.87t-1.032 3.87a11 11 0 0 1-2.494 2.666q-1.892-1.204-5.074-2.064-3.181-.945-6.966-.946-3.87 0-5.676 1.118-1.806 1.032-1.806 2.666 0 1.29 1.118 2.15 1.118.774 3.354 1.462l4.558 1.462q8.084 2.58 12.384 6.622 4.386 3.956 4.386 10.836 0 7.31-5.762 11.868-5.762 4.472-16.942 4.472-3.956 0-7.396-.688-3.354-.602-5.934-1.806-2.494-1.29-3.956-3.096-1.376-1.892-1.376-4.3 0-2.494 1.462-4.214 1.462-1.806 3.182-2.752 2.408 1.892 5.848 3.268 3.526 1.376 7.654 1.376 4.214 0 5.934-1.29t1.72-3.01-1.376-2.58q-1.375-.946-3.87-1.806zm47.625 20.382q-.946.258-3.01.516a31 31 0 0 1-3.956.258q-1.978 0-3.526-.344-1.462-.258-2.494-1.032t-1.548-2.15q-.516-1.375-.516-3.612V64.884q.946-.172 3.01-.43a24 24 0 0 1 3.956-.344q1.978 0 3.44.344 1.548.258 2.58 1.032t1.548 2.15.516 3.612zm58.367-1.462q-1.203 1.204-3.526 1.806-2.235.688-5.418.688-3.182 0-6.02-.946t-4.644-4.558l-8.514-17.372q-1.29-2.666-2.322-4.988a177 177 0 0 1-2.236-5.504l-.516.086q.345 4.644.344 9.46.086 4.816.086 9.46v13.33q-.945.258-2.924.516a28 28 0 0 1-3.784.258q-1.891 0-3.354-.258-1.461-.258-2.408-1.032t-1.462-2.064q-.516-1.376-.516-3.526v-43q1.205-1.72 3.698-2.58 2.494-.86 5.332-.86 3.183 0 6.02 1.032 2.925.945 4.644 4.472l8.6 17.372q1.29 2.666 2.322 5.074a125 125 0 0 1 2.236 5.418l.43-.086a169 169 0 0 1-.43-9.288 505 505 0 0 1-.086-9.288V64.884q.947-.258 2.838-.516a30 30 0 0 1 3.87-.258q3.785 0 5.762 1.376 1.978 1.29 1.978 5.504zm26.205 1.462q-.946.258-3.01.516a31 31 0 0 1-3.956.258q-1.978 0-3.526-.344-1.462-.258-2.494-1.032t-1.548-2.15q-.516-1.375-.516-3.612V64.884q.946-.172 3.01-.43a24 24 0 0 1 3.956-.344q1.979 0 3.44.344 1.548.258 2.58 1.032t1.548 2.15.516 3.612zm25.945-49.536q0 1.979-.086 5.762a228 228 0 0 1-1.032 16.77q-.429 4.3-1.032 7.482-.343.258-1.032.516a11 11 0 0 1-1.462.43 14.5 14.5 0 0 1-2.924.344q-2.493 0-4.214-.774-1.634-.774-2.064-3.01-.429-1.978-.774-6.02a954 954 0 0 1-.516-8.772 540 540 0 0 1-.43-9.374 440 440 0 0 1-.086-7.912q1.72-.945 3.87-1.462a16.8 16.8 0 0 1 4.386-.602q3.526 0 5.418 1.634 1.978 1.634 1.978 4.988m-15.824 43.344q0-3.526 2.15-5.762 2.236-2.322 6.106-2.322t6.02 2.322q2.236 2.236 2.236 5.762t-2.236 5.848q-2.15 2.236-6.02 2.236t-6.106-2.236q-2.15-2.322-2.15-5.848"/></g><defs><filter id="a" width="1032" height="212" x="0" y="0" color-interpolation-filters="sRGB" filterUnits="userSpaceOnUse"><feFlood flood-opacity="0" result="BackgroundImageFix"/><feColorMatrix in="SourceAlpha" result="hardAlpha" values="0 0 0 0 0 0 0 0 0 0 0 0 0 0 0 0 0 0 127 0"/><feOffset dx="22" dy="23"/><feGaussianBlur stdDeviation="2"/><feComposite in2="hardAlpha" operator="out"/><feColorMatrix values="0 0 0 0 0 0 0 0 0 0 0 0 0 0 0 0 0 0 0.42 0"/><feBlend in2="BackgroundImageFix" result="effect1_dropShadow_66_100"/><feBlend in="SourceGraphic" in2="effect1_dropShadow_66_100" result="shape"/></filter><filter id="b" width="1006" height="189" x="0" y="0" color-interpolation-filters="sRGB" filterUnits="userSpaceOnUse"><feFlood flood-opacity="0" result="BackgroundImageFix"/><feColorMatrix in="SourceAlpha" result="hardAlpha" values="0 0 0 0 0 0 0 0 0 0 0 0 0 0 0 0 0 0 127 0"/><feOffset dy="4"/><feComposite in2="hardAlpha" operator="out"/><feColorMatrix values="0 0 0 0 0 0 0 0 0 0 0 0 0 0 0 0 0 0 0.25 0"/><feBlend in2="BackgroundImageFix" result="effect1_dropShadow_66_100"/><feBlend in="SourceGraphic" in2="effect1_dropShadow_66_100" result="shape"/></filter></defs></svg>