<svg width="1032" height="212" viewBox="0 0 1032 212" fill="none" xmlns="http://www.w3.org/2000/svg">
<g filter="url(#filter0_d_38_51)">
<g filter="url(#filter1_d_38_51)">
<path d="M0 92.5C0 41.4137 41.4137 0 92.5 0H913.5C964.586 0 1006 41.4137 1006 92.5C1006 143.586 964.586 185 913.5 185H92.5C41.4137 185 0 143.586 0 92.5Z" fill="#8281FB"/>
<path d="M92.5 6.5H913.5C960.996 6.5 999.5 45.0035 999.5 92.5C999.5 139.996 960.997 178.5 913.5 178.5H92.5C45.0035 178.5 6.5 139.996 6.5 92.5C6.5 45.0035 45.0035 6.5 92.5 6.5Z" stroke="white" stroke-width="13"/>
</g>
<path d="M97.3213 106.25C98.124 106.479 99.156 106.651 100.417 106.766C101.679 106.823 102.883 106.852 104.029 106.852C106.323 106.852 108.215 106.393 109.705 105.476C111.253 104.501 112.027 103.011 112.027 101.004C112.027 99.112 111.397 97.7647 110.135 96.962C108.874 96.1593 106.953 95.758 104.373 95.758H97.3213V106.25ZM97.3213 85.266H103.599C106.065 85.266 107.842 84.8073 108.931 83.89C110.078 82.9727 110.651 81.6253 110.651 79.848C110.651 78.3 109.992 77.0673 108.673 76.15C107.412 75.2327 105.491 74.774 102.911 74.774C102.051 74.774 101.048 74.8027 99.9013 74.86C98.812 74.9173 97.952 75.0033 97.3213 75.118V85.266ZM102.911 118.376C101.937 118.376 100.79 118.347 99.4713 118.29C98.1527 118.233 96.7767 118.118 95.3433 117.946C93.9673 117.774 92.5913 117.545 91.2153 117.258C89.8393 117.029 88.578 116.685 87.4313 116.226C84.278 115.022 82.7013 112.929 82.7013 109.948V69.786C82.7013 68.582 83.0167 67.6647 83.6473 67.034C84.3353 66.346 85.2527 65.8013 86.3993 65.4C88.3487 64.712 90.7853 64.2247 93.7093 63.938C96.6333 63.594 99.6433 63.422 102.739 63.422C110.078 63.422 115.725 64.6547 119.681 67.12C123.637 69.5853 125.615 73.398 125.615 78.558C125.615 81.138 124.87 83.374 123.379 85.266C121.889 87.1007 119.882 88.448 117.359 89.308C120.226 90.1107 122.605 91.5727 124.497 93.694C126.447 95.8153 127.421 98.4813 127.421 101.692C127.421 107.368 125.3 111.582 121.057 114.334C116.872 117.029 110.823 118.376 102.911 118.376ZM135.947 72.882C135.947 70.4167 136.664 68.4673 138.097 67.034C139.531 65.6007 141.48 64.884 143.945 64.884H172.325C172.727 65.5147 173.071 66.346 173.357 67.378C173.701 68.41 173.873 69.4993 173.873 70.646C173.873 72.8247 173.386 74.3727 172.411 75.29C171.494 76.2073 170.261 76.666 168.713 76.666H150.567V84.664H169.917C170.319 85.2947 170.663 86.126 170.949 87.158C171.293 88.1327 171.465 89.1933 171.465 90.34C171.465 92.5187 171.007 94.0667 170.089 94.984C169.172 95.9013 167.939 96.36 166.391 96.36H150.567V105.39H172.669C173.071 106.021 173.415 106.852 173.701 107.884C174.045 108.916 174.217 110.005 174.217 111.152C174.217 113.331 173.73 114.907 172.755 115.882C171.838 116.799 170.605 117.258 169.057 117.258H143.945C141.48 117.258 139.531 116.541 138.097 115.108C136.664 113.675 135.947 111.725 135.947 109.26V72.882ZM191.061 117.258C188.595 117.258 186.646 116.541 185.213 115.108C183.779 113.675 183.063 111.725 183.063 109.26V64.798C183.693 64.6833 184.697 64.54 186.073 64.368C187.449 64.1387 188.767 64.024 190.029 64.024C191.347 64.024 192.494 64.1387 193.469 64.368C194.501 64.54 195.361 64.884 196.049 65.4C196.737 65.916 197.253 66.6327 197.597 67.55C197.941 68.4673 198.113 69.6713 198.113 71.162V105.132H217.807C218.208 105.763 218.581 106.623 218.925 107.712C219.269 108.744 219.441 109.833 219.441 110.98C219.441 113.273 218.953 114.907 217.979 115.882C217.004 116.799 215.714 117.258 214.109 117.258H191.061ZM242.204 116.656C241.574 116.828 240.57 117 239.194 117.172C237.876 117.344 236.557 117.43 235.238 117.43C233.92 117.43 232.744 117.315 231.712 117.086C230.738 116.914 229.906 116.57 229.218 116.054C228.53 115.538 228.014 114.821 227.67 113.904C227.326 112.987 227.154 111.783 227.154 110.292V64.884C227.785 64.7693 228.788 64.626 230.164 64.454C231.54 64.2247 232.859 64.11 234.12 64.11C235.439 64.11 236.586 64.2247 237.56 64.454C238.592 64.626 239.452 64.97 240.14 65.486C240.828 66.002 241.344 66.7187 241.688 67.636C242.032 68.5533 242.204 69.7573 242.204 71.248V116.656ZM268.166 76.924C267.765 76.2933 267.392 75.4333 267.048 74.344C266.704 73.2547 266.532 72.108 266.532 70.904C266.532 68.668 267.02 67.0627 267.994 66.088C269.026 65.1133 270.345 64.626 271.95 64.626H309.446C309.848 65.2567 310.22 66.1167 310.564 67.206C310.908 68.2953 311.08 69.442 311.08 70.646C311.08 72.882 310.564 74.4873 309.532 75.462C308.558 76.4367 307.268 76.924 305.662 76.924H296.116V116.656C295.486 116.828 294.482 117 293.106 117.172C291.788 117.344 290.469 117.43 289.15 117.43C287.832 117.43 286.656 117.315 285.624 117.086C284.65 116.914 283.818 116.57 283.13 116.054C282.442 115.538 281.926 114.821 281.582 113.904C281.238 112.987 281.066 111.783 281.066 110.292V76.924H268.166ZM333.411 116.656C332.781 116.828 331.777 117 330.401 117.172C329.083 117.344 327.764 117.43 326.445 117.43C325.127 117.43 323.951 117.315 322.919 117.086C321.945 116.914 321.113 116.57 320.425 116.054C319.737 115.538 319.221 114.821 318.877 113.904C318.533 112.987 318.361 111.783 318.361 110.292V64.884C318.992 64.7693 319.995 64.626 321.371 64.454C322.747 64.2247 324.066 64.11 325.327 64.11C326.646 64.11 327.793 64.2247 328.767 64.454C329.799 64.626 330.659 64.97 331.347 65.486C332.035 66.002 332.551 66.7187 332.895 67.636C333.239 68.5533 333.411 69.7573 333.411 71.248V116.656ZM359.701 97.65V116.656C359.07 116.828 358.067 117 356.691 117.172C355.315 117.344 353.967 117.43 352.649 117.43C351.33 117.43 350.155 117.315 349.123 117.086C348.148 116.914 347.317 116.57 346.629 116.054C345.941 115.538 345.425 114.821 345.081 113.904C344.737 112.987 344.565 111.783 344.565 110.292V64.884C345.195 64.7693 346.199 64.626 347.575 64.454C348.951 64.2247 350.269 64.11 351.531 64.11C352.849 64.11 353.996 64.2247 354.971 64.454C356.003 64.626 356.863 64.97 357.551 65.486C358.239 66.002 358.755 66.7187 359.099 67.636C359.443 68.5533 359.615 69.7573 359.615 71.248V84.922L377.503 64.368C381.401 64.368 384.182 65.1133 385.845 66.604C387.565 68.0373 388.425 69.7573 388.425 71.764C388.425 73.2547 388.052 74.6593 387.307 75.978C386.561 77.2967 385.357 78.7873 383.695 80.45L372.945 91.2C374.378 92.8053 375.869 94.468 377.417 96.188C378.965 97.908 380.513 99.5993 382.061 101.262C383.609 102.867 385.071 104.415 386.447 105.906C387.823 107.397 389.055 108.687 390.145 109.776C390.145 111.037 389.915 112.155 389.457 113.13C388.998 114.105 388.367 114.936 387.565 115.624C386.819 116.312 385.959 116.828 384.985 117.172C384.01 117.516 382.978 117.688 381.889 117.688C379.538 117.688 377.617 117.115 376.127 115.968C374.636 114.764 373.203 113.359 371.827 111.754L359.701 97.65ZM397.475 72.882C397.475 70.4167 398.191 68.4673 399.625 67.034C401.058 65.6007 403.007 64.884 405.473 64.884H433.853C434.254 65.5147 434.598 66.346 434.885 67.378C435.229 68.41 435.401 69.4993 435.401 70.646C435.401 72.8247 434.913 74.3727 433.939 75.29C433.021 76.2073 431.789 76.666 430.241 76.666H412.095V84.664H431.445C431.846 85.2947 432.19 86.126 432.477 87.158C432.821 88.1327 432.993 89.1933 432.993 90.34C432.993 92.5187 432.534 94.0667 431.617 94.984C430.699 95.9013 429.467 96.36 427.919 96.36H412.095V105.39H434.197C434.598 106.021 434.942 106.852 435.229 107.884C435.573 108.916 435.745 110.005 435.745 111.152C435.745 113.331 435.257 114.907 434.283 115.882C433.365 116.799 432.133 117.258 430.585 117.258H405.473C403.007 117.258 401.058 116.541 399.625 115.108C398.191 113.675 397.475 111.725 397.475 109.26V72.882ZM442.182 76.924C441.781 76.2933 441.408 75.4333 441.064 74.344C440.72 73.2547 440.548 72.108 440.548 70.904C440.548 68.668 441.035 67.0627 442.01 66.088C443.042 65.1133 444.361 64.626 445.966 64.626H483.462C483.863 65.2567 484.236 66.1167 484.58 67.206C484.924 68.2953 485.096 69.442 485.096 70.646C485.096 72.882 484.58 74.4873 483.548 75.462C482.573 76.4367 481.283 76.924 479.678 76.924H470.132V116.656C469.501 116.828 468.498 117 467.122 117.172C465.803 117.344 464.485 117.43 463.166 117.43C461.847 117.43 460.672 117.315 459.64 117.086C458.665 116.914 457.834 116.57 457.146 116.054C456.458 115.538 455.942 114.821 455.598 113.904C455.254 112.987 455.082 111.783 455.082 110.292V76.924H442.182ZM539.591 115.194C538.788 115.997 537.613 116.599 536.065 117C534.574 117.459 532.768 117.688 530.647 117.688C528.526 117.688 526.519 117.373 524.627 116.742C522.735 116.111 521.187 114.592 519.983 112.184L511.469 94.812C510.609 93.0347 509.835 91.372 509.147 89.824C508.459 88.2187 507.714 86.384 506.911 84.32L506.395 84.406C506.624 87.502 506.739 90.6553 506.739 93.866C506.796 97.0767 506.825 100.23 506.825 103.326V116.656C506.194 116.828 505.22 117 503.901 117.172C502.64 117.344 501.378 117.43 500.117 117.43C498.856 117.43 497.738 117.344 496.763 117.172C495.788 117 494.986 116.656 494.355 116.14C493.724 115.624 493.237 114.936 492.893 114.076C492.549 113.159 492.377 111.983 492.377 110.55V67.55C493.18 66.4033 494.412 65.5433 496.075 64.97C497.738 64.3967 499.515 64.11 501.407 64.11C503.528 64.11 505.535 64.454 507.427 65.142C509.376 65.7727 510.924 67.2633 512.071 69.614L520.671 86.986C521.531 88.7633 522.305 90.4547 522.993 92.06C523.681 93.608 524.426 95.414 525.229 97.478L525.659 97.392C525.43 94.296 525.286 91.2 525.229 88.104C525.172 85.008 525.143 81.912 525.143 78.816V64.884C525.774 64.712 526.72 64.54 527.981 64.368C529.3 64.196 530.59 64.11 531.851 64.11C534.374 64.11 536.294 64.5687 537.613 65.486C538.932 66.346 539.591 68.1807 539.591 70.99V115.194ZM578.094 116.656C577.464 116.828 576.489 117 575.17 117.172C573.852 117.344 572.562 117.43 571.3 117.43C568.663 117.43 566.685 117 565.366 116.14C564.048 115.223 563.388 113.331 563.388 110.464V98.854C561.955 96.7327 560.407 94.382 558.744 91.802C557.082 89.222 555.448 86.5847 553.842 83.89C552.237 81.1953 550.746 78.558 549.37 75.978C547.994 73.3407 546.876 70.9327 546.016 68.754C546.762 67.722 547.765 66.776 549.026 65.916C550.345 65.056 551.95 64.626 553.842 64.626C556.078 64.626 557.884 65.0847 559.26 66.002C560.694 66.9193 562.041 68.6393 563.302 71.162L570.44 85.524H570.956C571.759 83.7467 572.447 82.1413 573.02 80.708C573.651 79.2173 574.253 77.7553 574.826 76.322C575.4 74.8313 576.002 73.312 576.632 71.764C577.263 70.1587 577.98 68.324 578.782 66.26C579.814 65.744 580.961 65.3427 582.222 65.056C583.484 64.7693 584.688 64.626 585.834 64.626C587.841 64.626 589.532 65.1707 590.908 66.26C592.342 67.292 593.058 68.8687 593.058 70.99C593.058 71.678 592.915 72.5093 592.628 73.484C592.342 74.4587 591.682 75.9493 590.65 77.956C589.618 79.9053 588.099 82.5713 586.092 85.954C584.143 89.3367 581.477 93.7513 578.094 99.198V116.656ZM608.2 66.432C609.174 65.8587 610.636 65.314 612.586 64.798C614.592 64.282 616.599 64.024 618.606 64.024C621.472 64.024 623.995 64.454 626.174 65.314C628.41 66.1167 629.843 67.4067 630.474 69.184C631.506 72.1653 632.624 75.634 633.828 79.59C635.032 83.546 636.236 87.6453 637.44 91.888C638.644 96.0733 639.819 100.23 640.966 104.358C642.112 108.429 643.116 112.041 643.976 115.194C643.288 115.997 642.256 116.627 640.88 117.086C639.504 117.602 637.87 117.86 635.978 117.86C634.602 117.86 633.426 117.745 632.452 117.516C631.534 117.287 630.76 116.943 630.13 116.484C629.556 116.025 629.069 115.423 628.668 114.678C628.324 113.933 628.008 113.073 627.722 112.098L626.174 106.164H610.608C610.149 107.884 609.69 109.661 609.232 111.496C608.773 113.331 608.314 115.108 607.856 116.828C607.053 117.115 606.193 117.344 605.276 117.516C604.416 117.745 603.355 117.86 602.094 117.86C599.17 117.86 596.991 117.373 595.558 116.398C594.182 115.366 593.494 113.961 593.494 112.184C593.494 111.381 593.608 110.579 593.838 109.776C594.067 108.973 594.325 108.027 594.612 106.938C595.013 105.39 595.558 103.469 596.246 101.176C596.991 98.8827 597.794 96.4173 598.654 93.78C599.514 91.0853 600.431 88.3333 601.406 85.524C602.38 82.7147 603.298 80.0773 604.158 77.612C605.018 75.0893 605.792 72.8533 606.48 70.904C607.225 68.9547 607.798 67.464 608.2 66.432ZM618.52 77.526C617.717 79.934 616.8 82.6287 615.768 85.61C614.793 88.534 613.904 91.5153 613.102 94.554H623.766C622.963 91.458 622.132 88.448 621.272 85.524C620.469 82.5427 619.724 79.8767 619.036 77.526H618.52ZM683.204 105.82C683.835 105.935 684.609 106.049 685.526 106.164C686.444 106.221 687.304 106.25 688.106 106.25C690.056 106.25 691.833 105.963 693.438 105.39C695.101 104.817 696.506 103.928 697.652 102.724C698.856 101.52 699.774 99.972 700.404 98.08C701.092 96.1307 701.436 93.8087 701.436 91.114C701.436 85.954 700.232 82.084 697.824 79.504C695.416 76.8667 692.206 75.548 688.192 75.548C687.39 75.548 686.558 75.5767 685.698 75.634C684.896 75.6913 684.064 75.7773 683.204 75.892V105.82ZM688.02 118.376C687.046 118.376 685.928 118.347 684.666 118.29C683.405 118.233 682.086 118.118 680.71 117.946C679.392 117.774 678.044 117.545 676.668 117.258C675.35 117.029 674.117 116.685 672.97 116.226C669.817 115.022 668.24 112.929 668.24 109.948V69.786C668.24 68.582 668.556 67.6647 669.186 67.034C669.874 66.346 670.792 65.8013 671.938 65.4C674.404 64.5973 677.012 64.0813 679.764 63.852C682.516 63.5653 684.982 63.422 687.16 63.422C691.632 63.422 695.674 63.9667 699.286 65.056C702.956 66.1453 706.08 67.8367 708.66 70.13C711.298 72.366 713.333 75.204 714.766 78.644C716.2 82.084 716.916 86.1547 716.916 90.856C716.916 95.4427 716.228 99.456 714.852 102.896C713.476 106.279 711.498 109.145 708.918 111.496C706.396 113.789 703.357 115.509 699.802 116.656C696.248 117.803 692.32 118.376 688.02 118.376ZM740.568 116.656C739.937 116.828 738.934 117 737.558 117.172C736.239 117.344 734.92 117.43 733.602 117.43C732.283 117.43 731.108 117.315 730.076 117.086C729.101 116.914 728.27 116.57 727.582 116.054C726.894 115.538 726.378 114.821 726.034 113.904C725.69 112.987 725.518 111.783 725.518 110.292V64.884C726.148 64.7693 727.152 64.626 728.528 64.454C729.904 64.2247 731.222 64.11 732.484 64.11C733.802 64.11 734.949 64.2247 735.924 64.454C736.956 64.626 737.816 64.97 738.504 65.486C739.192 66.002 739.708 66.7187 740.052 67.636C740.396 68.5533 740.568 69.7573 740.568 71.248V116.656ZM766.513 96.274C763.99 95.414 761.697 94.554 759.633 93.694C757.569 92.7767 755.792 91.6873 754.301 90.426C752.81 89.1647 751.635 87.674 750.775 85.954C749.972 84.1767 749.571 82.0267 749.571 79.504C749.571 74.6307 751.434 70.732 755.161 67.808C758.945 64.884 764.22 63.422 770.985 63.422C773.45 63.422 775.744 63.594 777.865 63.938C779.986 64.282 781.792 64.8267 783.283 65.572C784.831 66.26 786.035 67.1773 786.895 68.324C787.755 69.4133 788.185 70.7033 788.185 72.194C788.185 73.6847 787.841 74.9747 787.153 76.064C786.465 77.096 785.634 77.9847 784.659 78.73C783.398 77.9273 781.706 77.2393 779.585 76.666C777.464 76.0353 775.142 75.72 772.619 75.72C770.039 75.72 768.147 76.0927 766.943 76.838C765.739 77.526 765.137 78.4147 765.137 79.504C765.137 80.364 765.51 81.0807 766.255 81.654C767 82.17 768.118 82.6573 769.609 83.116L774.167 84.578C779.556 86.298 783.684 88.5053 786.551 91.2C789.475 93.8373 790.937 97.4493 790.937 102.036C790.937 106.909 789.016 110.865 785.175 113.904C781.334 116.885 775.686 118.376 768.233 118.376C765.596 118.376 763.13 118.147 760.837 117.688C758.601 117.287 756.623 116.685 754.903 115.882C753.24 115.022 751.922 113.99 750.947 112.786C750.03 111.525 749.571 110.091 749.571 108.486C749.571 106.823 750.058 105.419 751.033 104.272C752.008 103.068 753.068 102.151 754.215 101.52C755.82 102.781 757.77 103.871 760.063 104.788C762.414 105.705 764.965 106.164 767.717 106.164C770.526 106.164 772.504 105.734 773.651 104.874C774.798 104.014 775.371 103.011 775.371 101.864C775.371 100.717 774.912 99.8573 773.995 99.284C773.078 98.6533 771.788 98.0513 770.125 97.478L766.513 96.274ZM814.138 116.656C813.507 116.828 812.504 117 811.128 117.172C809.809 117.344 808.491 117.43 807.172 117.43C805.853 117.43 804.678 117.315 803.646 117.086C802.671 116.914 801.84 116.57 801.152 116.054C800.464 115.538 799.948 114.821 799.604 113.904C799.26 112.987 799.088 111.783 799.088 110.292V64.884C799.719 64.7693 800.722 64.626 802.098 64.454C803.474 64.2247 804.793 64.11 806.054 64.11C807.373 64.11 808.519 64.2247 809.494 64.454C810.526 64.626 811.386 64.97 812.074 65.486C812.762 66.002 813.278 66.7187 813.622 67.636C813.966 68.5533 814.138 69.7573 814.138 71.248V116.656ZM872.505 115.194C871.703 115.997 870.527 116.599 868.979 117C867.489 117.459 865.683 117.688 863.561 117.688C861.44 117.688 859.433 117.373 857.541 116.742C855.649 116.111 854.101 114.592 852.897 112.184L844.383 94.812C843.523 93.0347 842.749 91.372 842.061 89.824C841.373 88.2187 840.628 86.384 839.825 84.32L839.309 84.406C839.539 87.502 839.653 90.6553 839.653 93.866C839.711 97.0767 839.739 100.23 839.739 103.326V116.656C839.109 116.828 838.134 117 836.815 117.172C835.554 117.344 834.293 117.43 833.031 117.43C831.77 117.43 830.652 117.344 829.677 117.172C828.703 117 827.9 116.656 827.269 116.14C826.639 115.624 826.151 114.936 825.807 114.076C825.463 113.159 825.291 111.983 825.291 110.55V67.55C826.094 66.4033 827.327 65.5433 828.989 64.97C830.652 64.3967 832.429 64.11 834.321 64.11C836.443 64.11 838.449 64.454 840.341 65.142C842.291 65.7727 843.839 67.2633 844.985 69.614L853.585 86.986C854.445 88.7633 855.219 90.4547 855.907 92.06C856.595 93.608 857.341 95.414 858.143 97.478L858.573 97.392C858.344 94.296 858.201 91.2 858.143 88.104C858.086 85.008 858.057 81.912 858.057 78.816V64.884C858.688 64.712 859.634 64.54 860.895 64.368C862.214 64.196 863.504 64.11 864.765 64.11C867.288 64.11 869.209 64.5687 870.527 65.486C871.846 66.346 872.505 68.1807 872.505 70.99V115.194ZM898.71 116.656C898.08 116.828 897.076 117 895.7 117.172C894.382 117.344 893.063 117.43 891.744 117.43C890.426 117.43 889.25 117.315 888.218 117.086C887.244 116.914 886.412 116.57 885.724 116.054C885.036 115.538 884.52 114.821 884.176 113.904C883.832 112.987 883.66 111.783 883.66 110.292V64.884C884.291 64.7693 885.294 64.626 886.67 64.454C888.046 64.2247 889.365 64.11 890.626 64.11C891.945 64.11 893.092 64.2247 894.066 64.454C895.098 64.626 895.958 64.97 896.646 65.486C897.334 66.002 897.85 66.7187 898.194 67.636C898.538 68.5533 898.71 69.7573 898.71 71.248V116.656ZM924.655 67.12C924.655 68.4387 924.627 70.3593 924.569 72.882C924.512 75.3473 924.397 78.042 924.225 80.966C924.053 83.8327 923.824 86.728 923.537 89.652C923.251 92.5187 922.907 95.0127 922.505 97.134C922.276 97.306 921.932 97.478 921.473 97.65C921.015 97.822 920.527 97.9653 920.011 98.08C919.495 98.1947 918.979 98.2807 918.463 98.338C917.947 98.3953 917.489 98.424 917.087 98.424C915.425 98.424 914.02 98.166 912.873 97.65C911.784 97.134 911.096 96.1307 910.809 94.64C910.523 93.3213 910.265 91.3147 910.035 88.62C909.863 85.9253 909.691 83.0013 909.519 79.848C909.347 76.6947 909.204 73.57 909.089 70.474C909.032 67.378 909.003 64.7407 909.003 62.562C910.15 61.9313 911.44 61.444 912.873 61.1C914.364 60.6987 915.826 60.498 917.259 60.498C919.61 60.498 921.416 61.0427 922.677 62.132C923.996 63.2213 924.655 64.884 924.655 67.12ZM908.831 110.464C908.831 108.113 909.548 106.193 910.981 104.702C912.472 103.154 914.507 102.38 917.087 102.38C919.667 102.38 921.674 103.154 923.107 104.702C924.598 106.193 925.343 108.113 925.343 110.464C925.343 112.815 924.598 114.764 923.107 116.312C921.674 117.803 919.667 118.548 917.087 118.548C914.507 118.548 912.472 117.803 910.981 116.312C909.548 114.764 908.831 112.815 908.831 110.464Z" fill="white"/>
</g>
<defs>
<filter id="filter0_d_38_51" x="0" y="0" width="1032" height="212" filterUnits="userSpaceOnUse" color-interpolation-filters="sRGB">
<feFlood flood-opacity="0" result="BackgroundImageFix"/>
<feColorMatrix in="SourceAlpha" type="matrix" values="0 0 0 0 0 0 0 0 0 0 0 0 0 0 0 0 0 0 127 0" result="hardAlpha"/>
<feOffset dx="22" dy="23"/>
<feGaussianBlur stdDeviation="2"/>
<feComposite in2="hardAlpha" operator="out"/>
<feColorMatrix type="matrix" values="0 0 0 0 0 0 0 0 0 0 0 0 0 0 0 0 0 0 0.25 0"/>
<feBlend mode="normal" in2="BackgroundImageFix" result="effect1_dropShadow_38_51"/>
<feBlend mode="normal" in="SourceGraphic" in2="effect1_dropShadow_38_51" result="shape"/>
</filter>
<filter id="filter1_d_38_51" x="0" y="0" width="1006" height="189" filterUnits="userSpaceOnUse" color-interpolation-filters="sRGB">
<feFlood flood-opacity="0" result="BackgroundImageFix"/>
<feColorMatrix in="SourceAlpha" type="matrix" values="0 0 0 0 0 0 0 0 0 0 0 0 0 0 0 0 0 0 127 0" result="hardAlpha"/>
<feOffset dy="4"/>
<feComposite in2="hardAlpha" operator="out"/>
<feColorMatrix type="matrix" values="0 0 0 0 0 0 0 0 0 0 0 0 0 0 0 0 0 0 0.25 0"/>
<feBlend mode="normal" in2="BackgroundImageFix" result="effect1_dropShadow_38_51"/>
<feBlend mode="normal" in="SourceGraphic" in2="effect1_dropShadow_38_51" result="shape"/>
</filter>
</defs>
</svg>
